<svg xmlns="http://www.w3.org/2000/svg" width="88.753" height="86.407" viewBox="0 0 88.753 86.407"><defs><style>.a{fill:#e7246b;}.b{fill:#fff;font-size:14px;font-family:Raleway-Bold, Raleway;font-weight:700;}</style></defs><g transform="translate(-530 -714.536)"><g transform="translate(530 715)"><path class="a" d="M71.78.028H7a6.887,6.887,0,0,0-6.452,4.2,6.566,6.566,0,0,0,1.516,7.409L76.414,83.97a6.986,6.986,0,0,0,4.9,2,7.253,7.253,0,0,0,2.72-.534,6.7,6.7,0,0,0,4.314-6.27V16.143A16.343,16.343,0,0,0,71.78.028Z" transform="translate(0 -0.028)"/></g><text class="b" transform="translate(578.447 714.536) rotate(45)"><tspan x="16.388" y="13">Hot </tspan><tspan x="13.126" y="29">Item</tspan></text></g></svg>